<?xml version="1.0" encoding="UTF-8"?>
<svg version="1.1" xmlns="http://www.w3.org/2000/svg" width="626" height="443">
<path d="M0 0 C206.58 0 413.16 0 626 0 C626 146.19 626 292.38 626 443 C419.42 443 212.84 443 0 443 C0 296.81 0 150.62 0 0 Z " fill="#DDE7F8" transform="translate(0,0)"/>
<path d="M0 0 C206.58 0 413.16 0 626 0 C626 146.19 626 292.38 626 443 C419.42 443 212.84 443 0 443 C0 296.81 0 150.62 0 0 Z M3 3 C2.97713615 58.5268004 2.95950306 114.05360034 2.94893467 169.58040452 C2.94768389 176.12839143 2.94638957 182.67637833 2.94506836 189.22436523 C2.94480605 190.52801096 2.94454374 191.83165669 2.94427348 193.17480684 C2.93991622 214.3132077 2.93202837 235.45160585 2.9228472 256.59000509 C2.91351221 278.26251758 2.90794472 299.93502864 2.90591151 321.60754305 C2.90453596 334.99226395 2.90018365 348.3769772 2.89208353 361.76169575 C2.88681797 370.92664056 2.88519527 380.09158138 2.88649862 389.2565276 C2.8871423 394.55272862 2.88612114 399.84891623 2.88079453 405.1451149 C2.87596182 409.98526388 2.87566049 414.82539031 2.87910111 419.66554029 C2.87952693 421.42463169 2.87823011 423.18372445 2.87511682 424.94281315 C2.87115492 427.31782995 2.87323529 429.69276332 2.87695217 432.06777859 C2.87432516 432.76464619 2.87169814 433.46151378 2.86899152 434.17949858 C2.61386816 437.3671537 2.61386816 437.3671537 4 440 C5.36160398 440.09683211 6.72820184 440.12447421 8.09324461 440.1241985 C9.42754342 440.12756944 9.42754342 440.12756944 10.78879777 440.13100848 C11.77926058 440.12838146 12.76972339 440.12575445 13.79020023 440.12304783 C15.35958597 440.1247786 15.35958597 440.1247786 16.96067646 440.12654433 C20.51376252 440.12921949 24.06680448 440.12468148 27.61988831 440.12025452 C30.1740029 440.12069004 32.72811744 440.12156458 35.28223175 440.12284368 C40.85968695 440.12492322 46.43713152 440.1232638 52.01458549 440.11920547 C60.30814467 440.11318752 68.60169708 440.11286808 76.89525804 440.11374746 C90.84417616 440.11506355 104.79308956 440.11171168 118.7420063 440.10573006 C132.55985093 440.09981979 146.37769359 440.09596548 160.19553947 440.09487724 C161.05361939 440.0948085 161.91169931 440.09473976 162.79578165 440.09466894 C167.15326049 440.09433062 171.51073933 440.09402923 175.86821818 440.09374207 C206.75907062 440.09163979 237.64992049 440.08489723 268.54077148 440.07543945 C298.55704739 440.06626003 328.57332259 440.05917396 358.58959961 440.05493164 C359.97663323 440.05473435 359.97663323 440.05473435 361.39168774 440.05453308 C370.67751267 440.05321459 379.9633376 440.05193877 389.24916254 440.05069422 C408.16667297 440.04815778 427.08418336 440.04533652 446.00169373 440.04234314 C446.87155408 440.04220585 447.74141443 440.04206856 448.63763419 440.04192711 C506.75842387 440.03272126 564.8792121 440.01685471 623 440 C623.02286385 384.4731996 623.04049694 328.94639966 623.05106533 273.41959548 C623.05231611 266.87160857 623.05361043 260.32362167 623.05493164 253.77563477 C623.05519395 252.47198904 623.05545626 251.16834331 623.05572652 249.82519316 C623.06008378 228.6867923 623.06797163 207.54839415 623.0771528 186.40999491 C623.08648779 164.73748242 623.09205528 143.06497136 623.09408849 121.39245695 C623.09546404 108.00773605 623.09981635 94.6230228 623.10791647 81.23830425 C623.11318203 72.07335944 623.11480473 62.90841862 623.11350138 53.7434724 C623.1128577 48.44727138 623.11387886 43.15108377 623.11920547 37.8548851 C623.12403818 33.01473612 623.12433951 28.17460969 623.12089889 23.33445971 C623.12047307 21.57536831 623.12176989 19.81627555 623.12488318 18.05718685 C623.12884508 15.68217005 623.12676471 13.30723668 623.12304783 10.93222141 C623.12698835 9.88692001 623.12698835 9.88692001 623.13100848 8.82050142 C623.38613184 5.6328463 623.38613184 5.6328463 622 3 C620.63839602 2.90316789 619.27179816 2.87552579 617.90675539 2.8758015 C616.57245658 2.87243056 616.57245658 2.87243056 615.21120223 2.86899152 C614.22073942 2.87161854 613.23027661 2.87424555 612.20979977 2.87695217 C610.64041403 2.8752214 610.64041403 2.8752214 609.03932354 2.87345567 C605.48623748 2.87078051 601.93319552 2.87531852 598.38011169 2.87974548 C595.8259971 2.87930996 593.27188256 2.87843542 590.71776825 2.87715632 C585.14031305 2.87507678 579.56286848 2.8767362 573.98541451 2.88079453 C565.69185533 2.88681248 557.39830292 2.88713192 549.10474196 2.88625254 C535.15582384 2.88493645 521.20691044 2.88828832 507.2579937 2.89426994 C493.44014907 2.90018021 479.62230641 2.90403452 465.80446053 2.90512276 C464.94638061 2.9051915 464.08830069 2.90526024 463.20421835 2.90533106 C458.84673951 2.90566938 454.48926067 2.90597077 450.13178182 2.90625793 C419.24092938 2.90836021 388.35007951 2.91510277 357.45922852 2.92456055 C327.44295261 2.93373997 297.42667741 2.94082604 267.41040039 2.94506836 C266.02336677 2.94526565 266.02336677 2.94526565 264.60831226 2.94546692 C255.32248733 2.94678541 246.0366624 2.94806123 236.75083746 2.94930578 C217.83332703 2.95184222 198.91581664 2.95466348 179.99830627 2.95765686 C179.12844592 2.95779415 178.25858557 2.95793144 177.36236581 2.95807289 C119.24157613 2.96727874 61.1207879 2.98314529 3 3 Z " fill="#FDFEFE" transform="translate(0,0)"/>
<path d="M0 0 C204.27 0 408.54 0 619 0 C619 0.33 619 0.66 619 1 C415.06 1 211.12 1 1 1 C1 54.13 1 107.26 1 162 C1.66 162 2.32 162 3 162 C2.83785997 162.72566357 2.67571994 163.45132714 2.50866657 164.19898051 C2.03373412 166.81423995 1.86998138 169.16428099 1.8613348 171.81631184 C1.85586036 172.76330049 1.85038591 173.71028914 1.84474558 174.68597442 C1.84376747 175.7180753 1.84278936 176.75017619 1.84178162 177.81355286 C1.83684364 178.91630057 1.83190566 180.01904827 1.82681805 181.15521258 C1.81143738 184.85713564 1.80308083 188.55904134 1.79467773 192.26098633 C1.78509966 194.91193901 1.77513286 197.56288757 1.76467896 200.21383667 C1.74293462 205.92466829 1.72478267 211.63550225 1.70907402 217.34635353 C1.68635678 225.60327442 1.65821653 233.86016983 1.62875474 242.11706909 C1.58110156 255.5135003 1.53783122 268.90994193 1.49731445 282.30639648 C1.45794796 295.31942557 1.41651896 308.33244539 1.37231445 321.34545898 C1.36959018 322.14764718 1.36686591 322.94983537 1.36405908 323.7763323 C1.35037941 327.80069441 1.33665918 331.82505638 1.32291877 335.84941828 C1.20898972 369.23292639 1.10217247 402.61645384 1 436 C0.67 436 0.34 436 0 436 C0 292.12 0 148.24 0 0 Z " fill="#ECF2F9" transform="translate(3,3)"/>
</svg>
